<svg xmlns="http://www.w3.org/2000/svg" viewBox="0 0 24 24" id="layout"><g data-name="layout 18"><path fill="#55abff" d="M5 3h5a0 0 0 0 1 0 0v7a0 0 0 0 1 0 0H3a0 0 0 0 1 0 0V5A2 2 0 0 1 5 3zM14 3h5a2 2 0 0 1 2 2v5a0 0 0 0 1 0 0H14a0 0 0 0 1 0 0V3A0 0 0 0 1 14 3zM3 14h7a0 0 0 0 1 0 0v7a0 0 0 0 1 0 0H5a2 2 0 0 1-2-2V14A0 0 0 0 1 3 14zM14 14h7a0 0 0 0 1 0 0v5a2 2 0 0 1-2 2H14a0 0 0 0 1 0 0V14A0 0 0 0 1 14 14z"></path><path fill="#0078ee" d="M10 2H5A3 3 0 0 0 2 5v5a1 1 0 0 0 1 1h7a1 1 0 0 0 1-1V3A1 1 0 0 0 10 2zM9 9H4V5A1 1 0 0 1 5 4H9zM19 2H14a1 1 0 0 0-1 1v7a1 1 0 0 0 1 1h7a1 1 0 0 0 1-1V5A3 3 0 0 0 19 2zm1 7H15V4h4a1 1 0 0 1 1 1zM10 13H3a1 1 0 0 0-1 1v5a3 3 0 0 0 3 3h5a1 1 0 0 0 1-1V14A1 1 0 0 0 10 13zM9 20H5a1 1 0 0 1-1-1V15H9zM21 13H14a1 1 0 0 0-1 1v7a1 1 0 0 0 1 1h5a3 3 0 0 0 3-3V14A1 1 0 0 0 21 13zm-1 6a1 1 0 0 1-1 1H15V15h5z"></path></g></svg>